<svg width="100%" height="100%" id="svg" viewBox="0 0 1440 390" xmlns="http://www.w3.org/2000/svg"><path d="M 0,400 C 0,400 0,100 0,100 C 67.77396083819991,119.55616626588801 135.54792167639982,139.11233253177602 209,128 C 282.4520783236002,116.88766746822398 361.58227413260056,75.1068361387839 425,65 C 488.41772586739944,54.89316386121609 536.1229817931982,76.46032291308829 604,89 C 671.8770182068018,101.53967708691171 759.9257986946067,105.05187220886293 835,99 C 910.0742013053933,92.94812779113707 972.173823428375,77.33218825145998 1028,72 C 1083.826176571625,66.66781174854002 1133.3789075918928,71.61937478529714 1201,78 C 1268.6210924081072,84.38062521470286 1354.3105462040535,92.19031260735143 1440,100 C 1440,100 1440,400 1440,400 Z" stroke="none" stroke-width="0" fill="#157EFB" fill-opacity="0.4" class="path-0" style="transition-property: all; transition-timing-function: cubic-bezier(0.4, 0, 0.2, 1); transition-duration: 300ms; transition-delay: 150ms;"></path><path d="M 0,400 C 0,400 0,200 0,200 C 46.68086568189625,207.91824115424254 93.3617313637925,215.83648230848505 175,213 C 256.6382686362075,210.16351769151495 373.2339402267262,196.57231192030233 446,187 C 518.7660597732738,177.42768807969767 547.7025077293026,171.8742700103057 594,175 C 640.2974922706974,178.1257299896943 703.9560288560633,189.9306080384748 788,206 C 872.0439711439367,222.0693919615252 976.4733768464446,242.40329783579529 1047,237 C 1117.5266231535554,231.59670216420471 1154.1504637581588,200.4562006183442 1214,190 C 1273.8495362418412,179.5437993816558 1356.9247681209206,189.7718996908279 1440,200 C 1440,200 1440,400 1440,400 Z" stroke="none" stroke-width="0" fill="#157EFB" fill-opacity="0.53" class="path-1" style="transition-property: all; transition-timing-function: cubic-bezier(0.4, 0, 0.2, 1); transition-duration: 300ms; transition-delay: 150ms;"></path><path d="M 0,400 C 0,400 0,300 0,300 C 46.070079010649266,321.609756097561 92.14015802129853,343.2195121951219 167,334 C 241.85984197870147,324.7804878048781 345.5094469254551,284.73170731707313 423,285 C 500.4905530745449,285.26829268292687 551.8220542768807,325.8536585365854 616,324 C 680.1779457231193,322.1463414634146 757.2023359670218,277.8536585365853 826,271 C 894.7976640329782,264.1463414634147 955.3686018550325,294.7317073170732 1022,311 C 1088.6313981449675,327.2682926829268 1161.323256612848,329.219512195122 1232,325 C 1302.676743387152,320.780487804878 1371.338371693576,310.390243902439 1440,300 C 1440,300 1440,400 1440,400 Z" stroke="none" stroke-width="0" fill="#157EFB" fill-opacity="1" class="path-2" style="transition-property: all; transition-timing-function: cubic-bezier(0.4, 0, 0.2, 1); transition-duration: 300ms; transition-delay: 150ms;"></path></svg>