<svg id="visual" viewBox="0 0 675 900" width="675" height="900" xmlns="http://www.w3.org/2000/svg" xmlns:xlink="http://www.w3.org/1999/xlink" version="1.1"><rect x="0" y="0" width="675" height="900" fill="#000310"></rect><path d="M566 0L560.5 12.5C555 25 544 50 531 75C518 100 503 125 486.8 150C470.7 175 453.3 200 433 225C412.7 250 389.3 275 365.7 300C342 325 318 350 296.7 375C275.3 400 256.7 425 244.5 450C232.3 475 226.7 500 227.5 525C228.3 550 235.7 575 285 600C334.3 625 425.7 650 474.5 675C523.3 700 529.7 725 466.8 750C404 775 272 800 255.5 825C239 850 338 875 387.5 887.5L437 900L0 900L0 887.5C0 875 0 850 0 825C0 800 0 775 0 750C0 725 0 700 0 675C0 650 0 625 0 600C0 575 0 550 0 525C0 500 0 475 0 450C0 425 0 400 0 375C0 350 0 325 0 300C0 275 0 250 0 225C0 200 0 175 0 150C0 125 0 100 0 75C0 50 0 25 0 12.5L0 0Z" fill="#22d3ee"></path><path d="M196 0L210.2 12.5C224.3 25 252.7 50 245 75C237.3 100 193.7 125 187 150C180.3 175 210.7 200 251.7 225C292.7 250 344.3 275 361.8 300C379.3 325 362.7 350 312.5 375C262.3 400 178.7 425 191.2 450C203.7 475 312.3 500 349.8 525C387.3 550 353.7 575 312.3 600C271 625 222 650 248.3 675C274.7 700 376.3 725 414.7 750C453 775 428 800 401.7 825C375.3 850 347.7 875 333.8 887.5L320 900L0 900L0 887.5C0 875 0 850 0 825C0 800 0 775 0 750C0 725 0 700 0 675C0 650 0 625 0 600C0 575 0 550 0 525C0 500 0 475 0 450C0 425 0 400 0 375C0 350 0 325 0 300C0 275 0 250 0 225C0 200 0 175 0 150C0 125 0 100 0 75C0 50 0 25 0 12.5L0 0Z" fill="#00b9f8"></path><path d="M141 0L149.5 12.5C158 25 175 50 191.5 75C208 100 224 125 234.2 150C244.3 175 248.7 200 225.3 225C202 250 151 275 141.7 300C132.3 325 164.7 350 196 375C227.3 400 257.7 425 247 450C236.3 475 184.7 500 161.8 525C139 550 145 575 159 600C173 625 195 650 192.8 675C190.7 700 164.3 725 141.5 750C118.7 775 99.3 800 135.5 825C171.7 850 263.3 875 309.2 887.5L355 900L0 900L0 887.5C0 875 0 850 0 825C0 800 0 775 0 750C0 725 0 700 0 675C0 650 0 625 0 600C0 575 0 550 0 525C0 500 0 475 0 450C0 425 0 400 0 375C0 350 0 325 0 300C0 275 0 250 0 225C0 200 0 175 0 150C0 125 0 100 0 75C0 50 0 25 0 12.5L0 0Z" fill="#009af7"></path><path d="M159 0L166.2 12.5C173.3 25 187.7 50 183.5 75C179.3 100 156.7 125 138 150C119.3 175 104.7 200 100.5 225C96.3 250 102.7 275 99 300C95.3 325 81.7 350 86.8 375C92 400 116 425 130.2 450C144.3 475 148.7 500 165.7 525C182.7 550 212.3 575 223.7 600C235 625 228 650 214.8 675C201.7 700 182.3 725 187.5 750C192.7 775 222.3 800 205.5 825C188.7 850 125.3 875 93.7 887.5L62 900L0 900L0 887.5C0 875 0 850 0 825C0 800 0 775 0 750C0 725 0 700 0 675C0 650 0 625 0 600C0 575 0 550 0 525C0 500 0 475 0 450C0 425 0 400 0 375C0 350 0 325 0 300C0 275 0 250 0 225C0 200 0 175 0 150C0 125 0 100 0 75C0 50 0 25 0 12.5L0 0Z" fill="#0076ec"></path><path d="M79 0L82.8 12.5C86.7 25 94.3 50 103 75C111.7 100 121.3 125 126.7 150C132 175 133 200 139.5 225C146 250 158 275 145.8 300C133.7 325 97.3 350 93.8 375C90.3 400 119.7 425 127.3 450C135 475 121 500 113 525C105 550 103 575 99.7 600C96.3 625 91.7 650 89.8 675C88 700 89 725 97.2 750C105.3 775 120.7 800 121.8 825C123 850 110 875 103.5 887.5L97 900L0 900L0 887.5C0 875 0 850 0 825C0 800 0 775 0 750C0 725 0 700 0 675C0 650 0 625 0 600C0 575 0 550 0 525C0 500 0 475 0 450C0 425 0 400 0 375C0 350 0 325 0 300C0 275 0 250 0 225C0 200 0 175 0 150C0 125 0 100 0 75C0 50 0 25 0 12.5L0 0Z" fill="#1d4ed8"></path></svg>